<?xml version="1.0" encoding="UTF-8" standalone="no"?>
<!-- Created with Inkscape (http://www.inkscape.org/) -->

<svg
   xmlns:dc="http://purl.org/dc/elements/1.1/"
   xmlns:cc="http://creativecommons.org/ns#"
   xmlns:rdf="http://www.w3.org/1999/02/22-rdf-syntax-ns#"
   xmlns:svg="http://www.w3.org/2000/svg"
   xmlns="http://www.w3.org/2000/svg"
   xmlns:sodipodi="http://sodipodi.sourceforge.net/DTD/sodipodi-0.dtd"
   xmlns:inkscape="http://www.inkscape.org/namespaces/inkscape"
   width="210mm"
   height="297mm"
   viewBox="0 0 210 297"
   version="1.1"
   id="svg8"
   inkscape:version="0.92.4 (fd57863, 2020-04-02)"
   sodipodi:docname="books.svg">
  <defs
     id="defs2" />
  <sodipodi:namedview
     id="base"
     pagecolor="#ffffff"
     bordercolor="#666666"
     borderopacity="1.0"
     inkscape:pageopacity="0.0"
     inkscape:pageshadow="2"
     inkscape:zoom="2.8"
     inkscape:cx="281.66814"
     inkscape:cy="678.48408"
     inkscape:document-units="mm"
     inkscape:current-layer="layer1"
     showgrid="false"
     inkscape:window-width="1920"
     inkscape:window-height="1016"
     inkscape:window-x="0"
     inkscape:window-y="27"
     inkscape:window-maximized="1" />
  <metadata
     id="metadata5">
    <rdf:RDF>
      <cc:Work
         rdf:about="">
        <dc:format>image/svg+xml</dc:format>
        <dc:type
           rdf:resource="http://purl.org/dc/dcmitype/StillImage" />
        <dc:title></dc:title>
      </cc:Work>
    </rdf:RDF>
  </metadata>
  <g
     inkscape:label="Layer 1"
     inkscape:groupmode="layer"
     id="layer1">
    <rect
       style="fill:#333333;fill-opacity:1;stroke:none;stroke-width:0.165;stroke-miterlimit:4;stroke-dasharray:none;stroke-opacity:1"
       id="rect3736"
       width="32.072342"
       height="42.228584"
       x="57.992115"
       y="84.302094"
       ry="2.2745736" />
    <rect
       style="fill:#e6e6e6;fill-opacity:1;stroke:none;stroke-width:0.16500001;stroke-miterlimit:4;stroke-dasharray:none;stroke-opacity:1"
       id="rect3721"
       width="32.072342"
       height="42.228584"
       x="57.992115"
       y="83.243759"
       ry="2.2745736" />
    <rect
       ry="2.2745736"
       y="80.597923"
       x="57.992115"
       height="42.228584"
       width="32.072342"
       id="rect3723"
       style="fill:#4d4d4d;fill-opacity:1;stroke:none;stroke-width:0.16500001;stroke-miterlimit:4;stroke-dasharray:none;stroke-opacity:1" />
    <path
       style="fill:#333333;fill-opacity:1;stroke:none;stroke-width:0.19004036;stroke-miterlimit:4;stroke-dasharray:none;stroke-opacity:1"
       d="m 60.266606,80.635667 c -1.260115,0 -2.274282,1.102226 -2.274282,2.471754 v 40.951039 c 0,1.36953 1.014167,2.47232 2.274282,2.47232 h 0.58756 c 0.0061,0 0.01085,-0.006 0.01085,-0.0123 V 80.635667 Z"
       id="rect3719"
       inkscape:connector-curvature="0" />
    <rect
       style="fill:#333333;fill-opacity:1;stroke:none;stroke-width:0.16500001;stroke-miterlimit:4;stroke-dasharray:none;stroke-opacity:1"
       id="rect3736-3"
       width="32.072342"
       height="42.228584"
       x="141.12614"
       y="82.210693"
       ry="2.2745736" />
    <rect
       style="fill:#cccccc;fill-opacity:1;stroke:none;stroke-width:0.16500001;stroke-miterlimit:4;stroke-dasharray:none;stroke-opacity:1"
       id="rect3721-6"
       width="32.072342"
       height="42.228584"
       x="141.12614"
       y="81.152298"
       ry="2.2745736" />
    <rect
       ry="2.1374056"
       y="81.152298"
       x="141.12614"
       height="39.681995"
       width="32.072342"
       id="rect4567"
       style="fill:#e6e6e6;fill-opacity:1;stroke:none;stroke-width:0.15994748;stroke-miterlimit:4;stroke-dasharray:none;stroke-opacity:1" />
    <path
       style="fill:#333333;fill-opacity:1;stroke:none;stroke-width:0.18888322;stroke-miterlimit:4;stroke-dasharray:none;stroke-opacity:1"
       d="m 143.5069,81.116603 c -1.31874,0 -2.38009,1.040432 -2.38009,2.33319 v 38.655587 c 0,1.29276 1.06135,2.33374 2.38009,2.33374 h 0.6149 c 0.006,0 0.0114,-0.006 0.0114,-0.0116 V 81.116603 Z"
       id="rect3719-5"
       inkscape:connector-curvature="0" />
    <rect
       ry="2.1324127"
       y="81.145813"
       x="112.02216"
       height="39.589298"
       width="32.072342"
       id="rect3723-7"
       style="fill:#4d4d4d;fill-opacity:1;stroke:none;stroke-width:0.15976056;stroke-miterlimit:4;stroke-dasharray:none;stroke-opacity:1" />
    <rect
       style="fill:#4d4d4d;fill-opacity:1;stroke:none;stroke-width:0.14620492;stroke-miterlimit:4;stroke-dasharray:none;stroke-opacity:1"
       id="rect4569"
       width="26.860586"
       height="39.589298"
       x="117.23392"
       y="81.145813"
       ry="0.12789431" />
    <rect
       ry="2.2745736"
       y="137.21866"
       x="57.992115"
       height="42.228584"
       width="32.072342"
       id="rect4590"
       style="fill:#e6e6e6;fill-opacity:1;stroke:none;stroke-width:0.16500001;stroke-miterlimit:4;stroke-dasharray:none;stroke-opacity:1" />
    <rect
       style="fill:#e6e6e6;fill-opacity:1;stroke:none;stroke-width:0.16500001;stroke-miterlimit:4;stroke-dasharray:none;stroke-opacity:1"
       id="rect4592"
       width="32.072342"
       height="42.228584"
       x="90.064453"
       y="137.21866"
       ry="2.2745736" />
    <rect
       style="fill:#e6e6e6;fill-opacity:1;stroke:none;stroke-width:0.12100065;stroke-miterlimit:4;stroke-dasharray:none;stroke-opacity:1"
       id="rect4594"
       width="18.10751"
       height="40.224052"
       x="71.956947"
       y="139.18977"
       ry="2.7072569e-14" />
    <rect
       ry="2.2745736"
       y="137.21866"
       x="90.064453"
       height="42.228584"
       width="32.072342"
       id="rect4596"
       style="fill:#e6e6e6;fill-opacity:1;stroke:none;stroke-width:0.16500001;stroke-miterlimit:4;stroke-dasharray:none;stroke-opacity:1" />
    <path
       style="fill:#e6e6e6;fill-opacity:1;stroke:none;stroke-width:0.11376962;stroke-miterlimit:4;stroke-dasharray:none;stroke-opacity:1"
       d="m 90.066854,139.09224 c -0.0014,0 -0.0026,0.001 -0.0026,0.003 v 40.31638 c 0,0.001 0.0012,0.003 0.0026,0.003 h 15.964396 c 0.001,0 0.003,-0.001 0.003,-0.003 v -40.31638 c 0,-10e-4 -0.001,-0.003 -0.003,-0.003 z"
       id="rect4598"
       inkscape:connector-curvature="0" />
    <g
       id="g4614"
       transform="matrix(0.99791168,0,0,0.73077633,0.12111724,48.307479)">
      <path
         inkscape:connector-curvature="0"
         id="rect4603"
         d="m 58.000325,174.51869 c -0.0013,0 -0.0028,0.002 -0.0028,0.003 v 2.63602 c 0,1.26011 0.902298,2.2748 2.02284,2.2748 h 24.474457 c 0.01874,0 0.03698,-0.003 0.0556,-0.003 v -4.90772 c 0,-0.002 -8.89e-4,-0.003 -0.0023,-0.003 z"
         style="fill:#4d4d4d;fill-opacity:1;stroke:none;stroke-width:0.15559429;stroke-miterlimit:4;stroke-dasharray:none;stroke-opacity:1" />
      <path
         style="fill:#4d4d4d;fill-opacity:1;stroke:none;stroke-width:0.15448289;stroke-miterlimit:4;stroke-dasharray:none;stroke-opacity:1"
         d="m 89.990523,179.43251 c 0.0013,0 0.0028,-0.002 0.0028,-0.003 v -2.63602 c 0,-1.26011 -0.889454,-2.2748 -1.994045,-2.2748 H 63.873171 c -0.01847,0 -0.03645,0.003 -0.05481,0.003 v 4.90772 c 0,0.002 8.76e-4,0.003 0.0023,0.003 z"
         id="path4608"
         inkscape:connector-curvature="0" />
    </g>
    <g
       id="g4618"
       transform="matrix(0.98864841,0,0,0.7355839,1.4201104,47.409164)">
      <path
         style="fill:#4d4d4d;fill-opacity:1;stroke:none;stroke-width:0.15559429;stroke-miterlimit:4;stroke-dasharray:none;stroke-opacity:1"
         d="m 122.15625,174.56593 c 0.001,0 0.003,0.002 0.003,0.003 v 2.63602 c 0,1.26011 -0.90229,2.2748 -2.02284,2.2748 H 95.661756 c -0.01874,0 -0.03698,-0.003 -0.0556,-0.003 v -4.90772 c 0,-0.002 8.89e-4,-0.003 0.0023,-0.003 z"
         id="path4606"
         inkscape:connector-curvature="0" />
      <path
         inkscape:connector-curvature="0"
         id="path4610"
         d="m 89.788319,179.47975 c -0.001,0 -0.003,-0.002 -0.003,-0.003 v -2.63602 c 0,-1.26011 0.90229,-2.2748 2.02284,-2.2748 h 24.474621 c 0.0187,0 0.037,0.003 0.0556,0.003 v 4.90772 c 0,0.002 -8.9e-4,0.003 -0.002,0.003 z"
         style="fill:#4d4d4d;fill-opacity:1;stroke:none;stroke-width:0.15559429;stroke-miterlimit:4;stroke-dasharray:none;stroke-opacity:1" />
    </g>
    <path
       style="fill:none;stroke:#000000;stroke-width:0.065;stroke-linecap:round;stroke-linejoin:miter;stroke-opacity:1;stroke-miterlimit:4;stroke-dasharray:none"
       d="m 90.064451,139.18977 v 40.22405"
       id="path4640"
       inkscape:connector-curvature="0" />
    <rect
       ry="2.2745736"
       y="190.13461"
       x="57.992115"
       height="42.228584"
       width="32.072342"
       id="rect4668"
       style="fill:#4d4d4d;fill-opacity:1;stroke:none;stroke-width:0.16500001;stroke-miterlimit:4;stroke-dasharray:none;stroke-opacity:1" />
    <rect
       style="fill:#e6e6e6;fill-opacity:1;stroke:none;stroke-width:0.14895752;stroke-miterlimit:4;stroke-dasharray:none;stroke-opacity:1"
       id="rect4644"
       width="28.954037"
       height="38.122818"
       x="59.587822"
       y="191.16464"
       ry="2.0534232" />
    <rect
       ry="2.2745736"
       y="190.13461"
       x="90.064453"
       height="42.228584"
       width="32.072342"
       id="rect4646"
       style="fill:#e6e6e6;fill-opacity:1;stroke:none;stroke-width:0.16500001;stroke-miterlimit:4;stroke-dasharray:none;stroke-opacity:1" />
    <rect
       ry="2.7072569e-14"
       y="192.10573"
       x="71.956947"
       height="40.224052"
       width="18.10751"
       id="rect4648"
       style="fill:#e6e6e6;fill-opacity:1;stroke:none;stroke-width:0.12100065;stroke-miterlimit:4;stroke-dasharray:none;stroke-opacity:1" />
    <rect
       ry="2.2745736"
       y="190.13461"
       x="90.064453"
       height="42.228584"
       width="32.072342"
       id="rect4672"
       style="fill:#4d4d4d;fill-opacity:1;stroke:none;stroke-width:0.16500001;stroke-miterlimit:4;stroke-dasharray:none;stroke-opacity:1" />
    <rect
       style="fill:#e6e6e6;fill-opacity:1;stroke:none;stroke-width:0.1524369;stroke-miterlimit:4;stroke-dasharray:none;stroke-opacity:1"
       id="rect4650"
       width="29.630352"
       height="39.013298"
       x="91.46537"
       y="190.95567"
       ry="2.1013875" />
    <path
       inkscape:connector-curvature="0"
       id="path4652"
       d="m 90.066854,192.10373 c -0.0014,0 -0.0026,10e-4 -0.0026,0.003 v 40.31638 c 0,0.001 0.0012,0.003 0.0026,0.003 h 15.964396 c 0.001,0 0.003,-0.001 0.003,-0.003 v -40.31638 c 0,-0.001 -0.001,-0.003 -0.003,-0.003 z"
       style="fill:#e6e6e6;fill-opacity:1;stroke:none;stroke-width:0.11376962;stroke-miterlimit:4;stroke-dasharray:none;stroke-opacity:1" />
    <g
       transform="matrix(0.99791168,0,0,0.73077633,0.12111724,101.22418)"
       id="g4658">
      <path
         style="fill:#4d4d4d;fill-opacity:1;stroke:none;stroke-width:0.15559429;stroke-miterlimit:4;stroke-dasharray:none;stroke-opacity:1"
         d="m 58.000325,174.51869 c -0.0013,0 -0.0028,0.002 -0.0028,0.003 v 2.63602 c 0,1.26011 0.902298,2.2748 2.02284,2.2748 h 24.474457 c 0.01874,0 0.03698,-0.003 0.0556,-0.003 v -4.90772 c 0,-0.002 -8.89e-4,-0.003 -0.0023,-0.003 z"
         id="path4654"
         inkscape:connector-curvature="0" />
      <path
         inkscape:connector-curvature="0"
         id="path4656"
         d="m 89.990523,179.43251 c 0.0013,0 0.0028,-0.002 0.0028,-0.003 v -2.63602 c 0,-1.26011 -0.889454,-2.2748 -1.994045,-2.2748 H 63.873171 c -0.01847,0 -0.03645,0.003 -0.05481,0.003 v 4.90772 c 0,0.002 8.76e-4,0.003 0.0023,0.003 z"
         style="fill:#4d4d4d;fill-opacity:1;stroke:none;stroke-width:0.15448289;stroke-miterlimit:4;stroke-dasharray:none;stroke-opacity:1" />
    </g>
    <g
       transform="matrix(0.98864841,0,0,0.7355839,1.4201104,100.32586)"
       id="g4664">
      <path
         inkscape:connector-curvature="0"
         id="path4660"
         d="m 122.15625,174.56593 c 0.001,0 0.003,0.002 0.003,0.003 v 2.63602 c 0,1.26011 -0.90229,2.2748 -2.02284,2.2748 H 95.661756 c -0.01874,0 -0.03698,-0.003 -0.0556,-0.003 v -4.90772 c 0,-0.002 8.89e-4,-0.003 0.0023,-0.003 z"
         style="fill:#4d4d4d;fill-opacity:1;stroke:none;stroke-width:0.15559429;stroke-miterlimit:4;stroke-dasharray:none;stroke-opacity:1" />
      <path
         style="fill:#4d4d4d;fill-opacity:1;stroke:none;stroke-width:0.15559429;stroke-miterlimit:4;stroke-dasharray:none;stroke-opacity:1"
         d="m 89.788319,179.47975 c -0.001,0 -0.003,-0.002 -0.003,-0.003 v -2.63602 c 0,-1.26011 0.90229,-2.2748 2.02284,-2.2748 h 24.474621 c 0.0187,0 0.037,0.003 0.0556,0.003 v 4.90772 c 0,0.002 -8.9e-4,0.003 -0.002,0.003 z"
         id="path4662"
         inkscape:connector-curvature="0" />
    </g>
    <path
       inkscape:connector-curvature="0"
       id="path4666"
       d="m 90.064451,192.20126 v 40.22405"
       style="fill:none;stroke:#000000;stroke-width:0.065;stroke-linecap:round;stroke-linejoin:miter;stroke-miterlimit:4;stroke-dasharray:none;stroke-opacity:1" />
  </g>
</svg>
